<svg width="24" height="24" viewBox="0 0 24 24" fill="none" xmlns="http://www.w3.org/2000/svg">
<path d="M13.4134 5H19.9994C20.2646 5 20.519 5.10536 20.7065 5.29289C20.894 5.48043 20.9994 5.73478 20.9994 6V7H2.99939V4C2.99939 3.73478 3.10474 3.48043 3.29228 3.29289C3.47982 3.10536 3.73417 3 3.99939 3H11.4134L13.4134 5ZM3.08639 9H20.9124C21.0507 8.99994 21.1876 9.02859 21.3143 9.08413C21.441 9.13968 21.5548 9.22092 21.6486 9.32271C21.7423 9.4245 21.8138 9.54463 21.8587 9.67549C21.9036 9.80636 21.9209 9.94512 21.9094 10.083L21.0754 20.083C21.0546 20.3329 20.9406 20.5658 20.7562 20.7357C20.5717 20.9055 20.3301 20.9999 20.0794 21H3.91939C3.66863 20.9999 3.42708 20.9055 3.24261 20.7357C3.05813 20.5658 2.9442 20.3329 2.92339 20.083L2.08939 10.083C2.0779 9.94512 2.09516 9.80636 2.14005 9.67549C2.18495 9.54463 2.25652 9.4245 2.35022 9.32271C2.44393 9.22092 2.55774 9.13968 2.68446 9.08413C2.81117 9.02859 2.94803 8.99994 3.08639 9Z" fill="#800020"/>
</svg>
