<svg width="24" height="24" viewBox="0 0 24 24" fill="none" xmlns="http://www.w3.org/2000/svg">
<path d="M9.95209 2.21C11.301 1.92713 12.6939 1.92645 14.0431 2.208C14.133 2.80129 14.3554 3.36669 14.6939 3.86218C15.0323 4.35767 15.4781 4.77051 15.9981 5.07C16.5177 5.37053 17.0983 5.55007 17.6968 5.59525C18.2953 5.64044 18.8963 5.55012 19.4551 5.331C20.3734 6.35906 21.069 7.56604 21.4981 8.876C21.0294 9.25058 20.6512 9.72595 20.3915 10.2668C20.1318 10.8076 19.9974 11.4 19.9981 12C19.9981 13.264 20.5841 14.391 21.5001 15.124C21.0684 16.4329 20.372 17.6389 19.4541 18.667C18.8954 18.448 18.2946 18.3578 17.6963 18.403C17.098 18.4482 16.5175 18.6276 15.9981 18.928C15.4785 19.2274 15.0331 19.64 14.6948 20.1351C14.3566 20.6302 14.1341 21.1952 14.0441 21.788C12.6953 22.0715 11.3024 22.0729 9.95309 21.792C9.86364 21.1982 9.6414 20.6322 9.30292 20.1361C8.96443 19.6401 8.51842 19.2268 7.99809 18.927C7.47846 18.6266 6.89779 18.4473 6.29928 18.4023C5.70077 18.3572 5.09981 18.4477 4.54109 18.667C3.62269 17.6386 2.9271 16.4313 2.49809 15.121C2.96649 14.7466 3.34455 14.2716 3.60423 13.7311C3.8639 13.1906 3.99852 12.5986 3.99809 11.999C3.99858 11.3989 3.8638 10.8064 3.60376 10.2655C3.34372 9.72466 2.96512 9.24938 2.49609 8.875C2.92776 7.56612 3.62421 6.3601 4.54209 5.332C5.10075 5.55096 5.70156 5.6412 6.29989 5.59601C6.89821 5.55083 7.47866 5.37138 7.99809 5.071C8.51764 4.7716 8.96308 4.35903 9.30135 3.86391C9.63963 3.36879 9.86204 2.80384 9.95209 2.211V2.21ZM11.9981 15C12.7937 15 13.5568 14.6839 14.1194 14.1213C14.682 13.5587 14.9981 12.7957 14.9981 12C14.9981 11.2044 14.682 10.4413 14.1194 9.87868C13.5568 9.31607 12.7937 9 11.9981 9C11.2024 9 10.4394 9.31607 9.87677 9.87868C9.31416 10.4413 8.99809 11.2044 8.99809 12C8.99809 12.7957 9.31416 13.5587 9.87677 14.1213C10.4394 14.6839 11.2024 15 11.9981 15Z" fill="#800020"/>
</svg>
