<?xml version="1.0" standalone="no"?>
<!DOCTYPE svg PUBLIC "-//W3C//DTD SVG 20010904//EN"
 "http://www.w3.org/TR/2001/REC-SVG-20010904/DTD/svg10.dtd">
<svg version="1.0" xmlns="http://www.w3.org/2000/svg"
 width="360.000000pt" height="360.000000pt" viewBox="0 0 360.000000 360.000000"
 preserveAspectRatio="xMidYMid meet">

<g transform="translate(0.000000,360.000000) scale(0.100000,-0.100000)"
fill="#000000" stroke="none">
<path d="M1585 3589 c-106 -13 -299 -60 -405 -99 -734 -271 -1211 -987 -1177
-1765 20 -451 190 -848 502 -1174 443 -463 1105 -653 1730 -496 328 82 593
232 835 475 243 242 391 504 475 835 157 621 -34 1287 -496 1730 -269 257
-576 412 -954 481 -99 19 -403 26 -510 13z m1101 -931 c179 -93 212 -303 98
-630 -101 -288 -300 -585 -584 -868 -138 -137 -257 -237 -357 -300 -72 -45
-165 -54 -237 -22 -55 25 -144 107 -185 171 -34 53 -93 222 -187 531 -100 331
-173 546 -198 582 -35 53 -81 49 -191 -17 -65 -39 -52 -44 -114 41 l-31 42
118 119 c189 192 346 308 476 353 75 26 119 25 174 -1 87 -43 143 -170 187
-425 14 -82 48 -239 74 -349 92 -380 131 -434 232 -327 111 115 244 340 268
450 37 177 -93 282 -250 202 l-42 -22 7 39 c4 21 25 76 47 122 71 150 225 278
394 326 32 9 86 13 150 12 85 -3 108 -7 151 -29z"/>
</g>
</svg>
